<?xml version="1.0" encoding="UTF-8" standalone="no"?>
<!DOCTYPE svg PUBLIC "-//W3C//DTD SVG 1.1//EN" "http://www.w3.org/Graphics/SVG/1.1/DTD/svg11.dtd">
<!-- Generated by Microsoft Visio, SVG Export architecture.svg Page-1 -->
<svg xmlns="http://www.w3.org/2000/svg" xmlns:xlink="http://www.w3.org/1999/xlink" xmlns:ev="http://www.w3.org/2001/xml-events"
		xmlns:v="http://schemas.microsoft.com/visio/2003/SVGExtensions/" width="11in" height="8.5in" viewBox="0 0 792 612"
		xml:space="preserve" color-interpolation-filters="sRGB" class="st29">
	<v:documentProperties v:langID="1033" v:viewMarkup="false">
		<v:userDefs>
			<v:ud v:nameU="msvSubprocessMaster" v:prompt="" v:val="VT4(Rectangle)"/>
			<v:ud v:nameU="msvNoAutoConnect" v:val="VT0(1):26"/>
		</v:userDefs>
	</v:documentProperties>

	<style type="text/css">
	<![CDATA[
		.st1 {stroke:#334356;stroke-dasharray:18,9;stroke-linecap:butt;stroke-width:2.25}
		.st2 {fill:url(#grad0-8);stroke:#334356;stroke-linecap:butt;stroke-width:1.25}
		.st3 {fill:url(#grad0-12);stroke:#ffffff;stroke-linecap:butt;stroke-width:1.25}
		.st4 {fill:#ffffff}
		.st5 {fill:url(#grad0-8);stroke:#334356;stroke-linecap:butt;stroke-opacity:0;stroke-width:1.25}
		.st6 {fill:#ffffff;stroke:#334356;stroke-linecap:butt;stroke-opacity:0;stroke-width:1.25}
		.st7 {fill:url(#grad0-8);stroke:#ffffff;stroke-linecap:butt;stroke-width:1.25}
		.st8 {stroke:#334356;stroke-linecap:butt;stroke-width:1.25}
		.st9 {stroke:#ffffff;stroke-linecap:butt;stroke-width:1.25}
		.st10 {fill:none;stroke:none;stroke-linecap:butt;stroke-width:1.25}
		.st11 {fill:#334356;font-family:Franklin Gothic Book;font-size:1.5em;font-weight:bold}
		.st12 {fill:#0e5d7a;stroke:#0a4c65;stroke-linecap:butt;stroke-width:1.25}
		.st13 {fill:#ffffff;font-family:Franklin Gothic Book;font-size:1.5em;font-weight:bold}
		.st14 {font-size:1em}
		.st15 {fill:#334356;font-family:Franklin Gothic Book;font-size:1.5em}
		.st16 {marker-end:url(#mrkr5-82);marker-start:url(#mrkr5-80);stroke:#334356;stroke-linecap:butt;stroke-width:2.25}
		.st17 {fill:#334356;fill-opacity:1;stroke:#334356;stroke-opacity:1;stroke-width:0.55555555555556}
		.st18 {fill:#334356;fill-opacity:1;stroke:#334356;stroke-opacity:1;stroke-width:0.47169811320755}
		.st19 {marker-end:url(#mrkr5-120);marker-start:url(#mrkr5-118);stroke:#bd857c;stroke-linecap:butt;stroke-width:2.25}
		.st20 {fill:#bd857c;fill-opacity:1;stroke:#bd857c;stroke-opacity:1;stroke-width:0.55555555555556}
		.st21 {fill:#bd857c;fill-opacity:1;stroke:#bd857c;stroke-opacity:1;stroke-width:0.47169811320755}
		.st22 {marker-end:url(#mrkr5-152);marker-start:url(#mrkr5-150);stroke:#86abbc;stroke-linecap:butt;stroke-width:2.25}
		.st23 {fill:#86abbc;fill-opacity:1;stroke:#86abbc;stroke-opacity:1;stroke-width:0.55555555555556}
		.st24 {fill:#86abbc;fill-opacity:1;stroke:#86abbc;stroke-opacity:1;stroke-width:0.47169811320755}
		.st25 {fill:#f4f4f4}
		.st26 {stroke:#686868;stroke-linecap:butt;stroke-width:1.25}
		.st27 {fill:#7f7f7f;font-family:Franklin Gothic Book;font-size:1.00001em;font-weight:bold}
		.st28 {fill:#d3aea7;stroke:#334356;stroke-linecap:butt;stroke-width:1.25}
		.st29 {fill:none;fill-rule:evenodd;font-size:12px;overflow:visible;stroke-linecap:square;stroke-miterlimit:3}
	]]>
	</style>

	<defs id="Patterns_And_Gradients">
		<linearGradient id="grad0-8" x1="0" y1="0" x2="1" y2="0" gradientTransform="rotate(90 0.5 0.5)">
			<stop offset="0.25" stop-color="#90969f" stop-opacity="1"/>
			<stop offset="0.97" stop-color="#6d7785" stop-opacity="1"/>
		</linearGradient>
		<linearGradient id="grad0-12" x1="0" y1="0" x2="1" y2="0" gradientTransform="rotate(90 0.5 0.5)">
			<stop offset="0.25" stop-color="#a9a9a9" stop-opacity="1"/>
			<stop offset="0.97" stop-color="#949494" stop-opacity="1"/>
		</linearGradient>
	</defs>
	<defs id="Markers">
		<g id="lend5">
			<path d="M 2 1 L 0 0 L 1.98117 -0.993387 C 1.67173 -0.364515 1.67301 0.372641 1.98465 1.00043 " style="stroke:none"/>
		</g>
		<marker id="mrkr5-80" class="st17" v:arrowType="5" v:arrowSize="1" v:setback="2.99" refX="2.99" orient="auto"
				markerUnits="strokeWidth" overflow="visible">
			<use xlink:href="#lend5" transform="scale(1.8) "/>
		</marker>
		<marker id="mrkr5-82" class="st18" v:arrowType="5" v:arrowSize="2" v:setback="3.71" refX="-3.71" orient="auto"
				markerUnits="strokeWidth" overflow="visible">
			<use xlink:href="#lend5" transform="scale(-2.12,-2.12) "/>
		</marker>
		<marker id="mrkr5-118" class="st20" v:arrowType="5" v:arrowSize="1" v:setback="2.99" refX="2.99" orient="auto"
				markerUnits="strokeWidth" overflow="visible">
			<use xlink:href="#lend5" transform="scale(1.8) "/>
		</marker>
		<marker id="mrkr5-120" class="st21" v:arrowType="5" v:arrowSize="2" v:setback="3.71" refX="-3.71" orient="auto"
				markerUnits="strokeWidth" overflow="visible">
			<use xlink:href="#lend5" transform="scale(-2.12,-2.12) "/>
		</marker>
		<marker id="mrkr5-150" class="st23" v:arrowType="5" v:arrowSize="1" v:setback="2.99" refX="2.99" orient="auto"
				markerUnits="strokeWidth" overflow="visible">
			<use xlink:href="#lend5" transform="scale(1.8) "/>
		</marker>
		<marker id="mrkr5-152" class="st24" v:arrowType="5" v:arrowSize="2" v:setback="3.71" refX="-3.71" orient="auto"
				markerUnits="strokeWidth" overflow="visible">
			<use xlink:href="#lend5" transform="scale(-2.12,-2.12) "/>
		</marker>
	</defs>
	<g v:mID="0" v:index="1" v:groupContext="foregroundPage">
		<v:userDefs>
			<v:ud v:nameU="msvThemeOrder" v:val="VT0(0):26"/>
		</v:userDefs>
		<title>Page-1</title>
		<v:pageProperties v:drawingScale="1" v:pageScale="1" v:drawingUnits="0" v:shadowOffsetX="9" v:shadowOffsetY="-9"/>
		<v:layer v:name="Connector" v:index="0"/>
		<g id="shape51-1" v:mID="51" v:groupContext="shape" transform="translate(904.5,180) rotate(90)">
			<title>Sheet.51</title>
			<path d="M0 612 L207 612" class="st1"/>
		</g>
		<g id="group1-4" transform="translate(127,-225)" v:mID="1" v:groupContext="group">
			<v:custProps>
				<v:cp v:nameU="AssetNumber" v:lbl="Asset Number" v:prompt="" v:type="0" v:format="" v:sortKey="Asset"
						v:invis="false" v:ask="false" v:langID="1033" v:cal="0"/>
				<v:cp v:nameU="SerialNumber" v:lbl="Serial Number" v:prompt="" v:type="0" v:format="" v:sortKey="Asset"
						v:invis="false" v:ask="false" v:langID="1033" v:cal="0"/>
				<v:cp v:nameU="Location" v:lbl="Location" v:prompt="" v:type="0" v:format="" v:sortKey="Asset" v:invis="false"
						v:ask="false" v:langID="1033" v:cal="0"/>
				<v:cp v:nameU="Building" v:lbl="Building" v:prompt="" v:type="0" v:format="" v:sortKey="Asset" v:invis="false"
						v:ask="false" v:langID="1033" v:cal="0"/>
				<v:cp v:nameU="Room" v:lbl="Room" v:prompt="" v:type="0" v:format="" v:sortKey="Asset" v:invis="false"
						v:ask="false" v:langID="1033" v:cal="0"/>
				<v:cp v:nameU="Manufacturer" v:lbl="Manufacturer" v:prompt="" v:type="0" v:format="" v:sortKey="Equipment"
						v:invis="false" v:ask="false" v:langID="1033" v:cal="0"/>
				<v:cp v:nameU="ProductNumber" v:lbl="Product Number" v:prompt="" v:type="0" v:format="" v:sortKey="Equipment"
						v:invis="false" v:ask="false" v:langID="1033" v:cal="0"/>
				<v:cp v:nameU="PartNumber" v:lbl="Part Number" v:prompt="" v:type="0" v:format="" v:sortKey="Equipment"
						v:invis="false" v:ask="false" v:langID="1033" v:cal="0"/>
				<v:cp v:nameU="ProductDescription" v:lbl="Product Description" v:prompt="" v:type="0" v:format=""
						v:sortKey="Equipment" v:invis="false" v:ask="false" v:langID="1033" v:cal="0"/>
				<v:cp v:nameU="NetworkName" v:lbl="Network Name" v:prompt="" v:type="0" v:format="" v:sortKey="Network"
						v:invis="false" v:ask="false" v:langID="1033" v:cal="0"/>
				<v:cp v:nameU="IPAddress" v:lbl="IP Address" v:prompt="" v:type="0" v:format="" v:sortKey="Network" v:invis="false"
						v:ask="false" v:langID="1033" v:cal="0"/>
				<v:cp v:nameU="SubnetMask" v:lbl="Subnet Mask" v:prompt="" v:type="0" v:format="" v:sortKey="Network"
						v:invis="false" v:ask="false" v:langID="1033" v:cal="0"/>
				<v:cp v:nameU="AdminInterface" v:lbl="Administrative Interface" v:prompt="" v:type="0" v:format=""
						v:sortKey="Network" v:invis="false" v:ask="false" v:langID="1033" v:cal="0"/>
				<v:cp v:nameU="NumberofPorts" v:lbl="Number of Ports" v:prompt="" v:type="0" v:format="" v:sortKey="Network"
						v:invis="false" v:ask="false" v:langID="1033" v:cal="0"/>
				<v:cp v:nameU="CommunityString" v:lbl="Community String" v:prompt="" v:type="0" v:format="" v:sortKey="Network"
						v:invis="false" v:ask="false" v:langID="1033" v:cal="0"/>
				<v:cp v:nameU="NetworkDescription" v:lbl="Network Description" v:prompt="" v:type="0" v:format=""
						v:sortKey="Network" v:invis="false" v:ask="false" v:langID="1033" v:cal="0"/>
				<v:cp v:nameU="MACAddress" v:lbl="MAC Address" v:prompt="" v:type="0" v:format="" v:sortKey="Network"
						v:invis="false" v:ask="false" v:langID="1033" v:cal="0"/>
				<v:cp v:nameU="CPU" v:lbl="CPU" v:prompt="" v:type="0" v:format="" v:sortKey="Workstation" v:invis="false"
						v:ask="false" v:langID="1033" v:cal="0"/>
				<v:cp v:nameU="Memory" v:lbl="Memory" v:prompt="" v:type="0" v:format="" v:sortKey="Workstation" v:invis="false"
						v:ask="false" v:langID="1033" v:cal="0"/>
				<v:cp v:nameU="OperatingSystem" v:lbl="Operating System" v:prompt="" v:type="0" v:format="" v:sortKey="Workstation"
						v:invis="false" v:ask="false" v:langID="1033" v:cal="0"/>
				<v:cp v:nameU="HardDriveSize" v:lbl="Hard Drive Capacity" v:prompt="" v:type="0" v:format=""
						v:sortKey="Workstation" v:invis="false" v:ask="false" v:langID="1033" v:cal="0"/>
				<v:cp v:nameU="ShapeClass" v:lbl="ShapeClass" v:prompt="" v:type="0" v:format="" v:sortKey="" v:invis="true"
						v:ask="false" v:langID="1033" v:cal="0" v:val="VT4(Equipment)"/>
				<v:cp v:nameU="ShapeType" v:lbl="ShapeType" v:prompt="" v:type="0" v:format="" v:sortKey="" v:invis="true"
						v:ask="false" v:langID="1033" v:cal="0" v:val="VT4(Computer)"/>
				<v:cp v:nameU="SubShapeType" v:lbl="SubShapeType" v:prompt="" v:type="0" v:format="" v:sortKey="" v:invis="true"
						v:ask="false" v:langID="1033" v:cal="0" v:val="VT4(Tablet Device)"/>
			</v:custProps>
			<v:userDefs>
				<v:ud v:nameU="visVersion" v:prompt="" v:val="VT0(15):26"/>
				<v:ud v:nameU="ShapeClass" v:prompt="" v:val="VT0(5):26"/>
				<v:ud v:nameU="SolSH" v:prompt="" v:val="VT15({BF0433D9-CD73-4EB5-8390-8653BE590246}):41"/>
				<v:ud v:nameU="visLegendShape" v:prompt="" v:val="VT0(2):26"/>
			</v:userDefs>
			<title>Tablet Device</title>
			<g id="shape2-5" v:mID="2" v:groupContext="shape" transform="translate(0,-6.96671)">
				<title>Sheet.2</title>
				<path d="M2.27 612 C1.57 612 0.91 611.41 0.84 610.71 C0.83 610.63 0 602.7 0 596.47 C0 590.07 0.83 582.3 0.83 582.22
							 C0.91 581.52 1.57 580.93 2.27 580.93 L42.73 580.93 C43.43 580.93 44.09 581.52 44.16 582.22 C44.17 582.3
							 45 590.23 45 596.47 C45 602.7 44.17 610.63 44.16 610.71 C44.09 611.41 43.43 612 42.73 612 L2.27 612
							 Z" class="st2"/>
			</g>
			<g id="shape3-9" v:mID="3" v:groupContext="shape" transform="translate(3.67916,-7.87523)">
				<title>Sheet.3</title>
				<v:userDefs>
					<v:ud v:nameU="SurroundingRegionColor" v:prompt="" v:val="VT0(1):26"/>
					<v:ud v:nameU="SurroundingRegionColor" v:prompt="" v:val="VT5(#405369)"/>
				</v:userDefs>
				<rect x="0" y="582.75" width="36" height="29.25" class="st3"/>
			</g>
			<g id="shape4-13" v:mID="4" v:groupContext="shape" transform="translate(41.1901,-27.4058)">
				<title>Sheet.4</title>
				<v:userDefs>
					<v:ud v:nameU="SurroundingRegionColor" v:prompt="" v:val="VT0(1):26"/>
					<v:ud v:nameU="SurroundingRegionColor" v:prompt="" v:val="VT5(#405369)"/>
				</v:userDefs>
				<path d="M1.64 611.18 a0.82176 0.82176 -180 1 0 -1.64352 0 a0.82176 0.82176 -180 1 0 1.64352 0 ZM1.64 608.19 a0.82176
							 0.82176 -180 1 0 -1.64352 0 a0.82176 0.82176 -180 1 0 1.64352 0 ZM1.64 605.2 a0.821298 0.821298 -180
							 1 0 -1.6426 0 a0.821298 0.821298 -180 1 0 1.6426 0 Z" class="st4"/>
			</g>
			<g id="shape5-16" v:mID="5" v:groupContext="shape" transform="translate(7.78986,-20.3634)">
				<title>Sheet.5</title>
				<path d="M14.45 612 L27.73 612 L27.73 606.22 L14.45 606.22 L14.45 612 ZM0 605 L13.33 605 L13.33 599.21 L0 599.21
							 L0 605 Z" class="st5"/>
			</g>
			<g id="shape6-19" v:mID="6" v:groupContext="shape" transform="translate(7.78986,-13.3657)">
				<title>Sheet.6</title>
				<v:userDefs>
					<v:ud v:nameU="SurroundingRegionColor" v:prompt="" v:val="VT0(1):26"/>
					<v:ud v:nameU="SurroundingRegionColor" v:prompt="" v:val="VT5(#7f7f7f)"/>
				</v:userDefs>
				<path d="M14.45 612 L27.78 612 L27.78 606.22 L14.45 606.22 L14.45 612 ZM0 612 L13.33 612 L13.33 606.22 L0 606.22
							 L0 612 ZM14.45 598 L27.78 598 L27.78 592.21 L14.45 592.21 L14.45 598 ZM7.16 605 L13.27 605 L13.27 599.22
							 L7.16 599.22 L7.16 605 ZM0 605 L6.11 605 L6.11 599.22 L0 599.22 L0 605 Z" class="st6"/>
			</g>
			<g id="shape7-21" v:mID="7" v:groupContext="shape" transform="translate(42.0546,-9.6621) scale(-1,1)">
				<title>Sheet.7</title>
				<v:userDefs>
					<v:ud v:nameU="SurroundingRegionColor" v:prompt="" v:val="VT0(1):26"/>
					<v:ud v:nameU="SurroundingRegionColor" v:prompt="" v:val="VT5(#7f7f7f)"/>
				</v:userDefs>
				<path d="M0.32 598.17 C0.05 598.64 -0.21 599 0.26 599.27 L21.17 611.24 C21.65 611.51 23.98 612.33 24.25 611.85 C24.52
							 611.38 22.63 609.79 22.16 609.52 L1.25 597.55 C0.77 597.28 0.6 597.69 0.32 598.17 Z" class="st7"/>
			</g>
			<g id="shape8-24" v:mID="8" v:groupContext="shape" transform="translate(17.7313,-8.85248) scale(-1,1)">
				<title>Sheet.8</title>
				<path d="M0 611.1 C11.27 614.52 7.75 607.14 12.68 606.44" class="st8"/>
			</g>
		</g>
		<g id="group9-28" transform="translate(127,-275.625)" v:mID="9" v:groupContext="group">
			<v:custProps>
				<v:cp v:nameU="AssetNumber" v:lbl="Asset Number" v:prompt="" v:type="0" v:format="" v:sortKey="Asset"
						v:invis="false" v:ask="false" v:langID="1033" v:cal="0"/>
				<v:cp v:nameU="SerialNumber" v:lbl="Serial Number" v:prompt="" v:type="0" v:format="" v:sortKey="Asset"
						v:invis="false" v:ask="false" v:langID="1033" v:cal="0"/>
				<v:cp v:nameU="Location" v:lbl="Location" v:prompt="" v:type="0" v:format="" v:sortKey="Asset" v:invis="false"
						v:ask="false" v:langID="1033" v:cal="0"/>
				<v:cp v:nameU="Building" v:lbl="Building" v:prompt="" v:type="0" v:format="" v:sortKey="Asset" v:invis="false"
						v:ask="false" v:langID="1033" v:cal="0"/>
				<v:cp v:nameU="Room" v:lbl="Room" v:prompt="" v:type="0" v:format="" v:sortKey="Asset" v:invis="false"
						v:ask="false" v:langID="1033" v:cal="0"/>
				<v:cp v:nameU="Manufacturer" v:lbl="Manufacturer" v:prompt="" v:type="0" v:format="" v:sortKey="Equipment"
						v:invis="false" v:ask="false" v:langID="1033" v:cal="0"/>
				<v:cp v:nameU="ProductNumber" v:lbl="Product Number" v:prompt="" v:type="0" v:format="" v:sortKey="Equipment"
						v:invis="false" v:ask="false" v:langID="1033" v:cal="0"/>
				<v:cp v:nameU="PartNumber" v:lbl="Part Number" v:prompt="" v:type="0" v:format="" v:sortKey="Equipment"
						v:invis="false" v:ask="false" v:langID="1033" v:cal="0"/>
				<v:cp v:nameU="ProductDescription" v:lbl="Product Description" v:prompt="" v:type="0" v:format=""
						v:sortKey="Equipment" v:invis="false" v:ask="false" v:langID="1033" v:cal="0"/>
				<v:cp v:nameU="NetworkName" v:lbl="Network Name" v:prompt="" v:type="0" v:format="" v:sortKey="Network"
						v:invis="false" v:ask="false" v:langID="1033" v:cal="0"/>
				<v:cp v:nameU="IPAddress" v:lbl="IP Address" v:prompt="" v:type="0" v:format="" v:sortKey="Network" v:invis="false"
						v:ask="false" v:langID="1033" v:cal="0"/>
				<v:cp v:nameU="SubnetMask" v:lbl="Subnet Mask" v:prompt="" v:type="0" v:format="" v:sortKey="Network"
						v:invis="false" v:ask="false" v:langID="1033" v:cal="0"/>
				<v:cp v:nameU="AdminInterface" v:lbl="Administrative Interface" v:prompt="" v:type="0" v:format=""
						v:sortKey="Network" v:invis="false" v:ask="false" v:langID="1033" v:cal="0"/>
				<v:cp v:nameU="NumberofPorts" v:lbl="Number of Ports" v:prompt="" v:type="0" v:format="" v:sortKey="Network"
						v:invis="false" v:ask="false" v:langID="1033" v:cal="0"/>
				<v:cp v:nameU="CommunityString" v:lbl="Community String" v:prompt="" v:type="0" v:format="" v:sortKey="Network"
						v:invis="false" v:ask="false" v:langID="1033" v:cal="0"/>
				<v:cp v:nameU="NetworkDescription" v:lbl="Network Description" v:prompt="" v:type="0" v:format=""
						v:sortKey="Network" v:invis="false" v:ask="false" v:langID="1033" v:cal="0"/>
				<v:cp v:nameU="MACAddress" v:lbl="MAC Address" v:prompt="" v:type="0" v:format="" v:sortKey="Network"
						v:invis="false" v:ask="false" v:langID="1033" v:cal="0"/>
				<v:cp v:nameU="CPU" v:lbl="CPU" v:prompt="" v:type="0" v:format="" v:sortKey="Workstation" v:invis="false"
						v:ask="false" v:langID="1033" v:cal="0"/>
				<v:cp v:nameU="Memory" v:lbl="Memory" v:prompt="" v:type="0" v:format="" v:sortKey="Workstation" v:invis="false"
						v:ask="false" v:langID="1033" v:cal="0"/>
				<v:cp v:nameU="OperatingSystem" v:lbl="Operating System" v:prompt="" v:type="0" v:format="" v:sortKey="Workstation"
						v:invis="false" v:ask="false" v:langID="1033" v:cal="0"/>
				<v:cp v:nameU="HardDriveSize" v:lbl="Hard Drive Capacity" v:prompt="" v:type="0" v:format=""
						v:sortKey="Workstation" v:invis="false" v:ask="false" v:langID="1033" v:cal="0"/>
				<v:cp v:nameU="ShapeClass" v:lbl="ShapeClass" v:prompt="" v:type="0" v:format="" v:sortKey="" v:invis="true"
						v:ask="false" v:langID="1033" v:cal="0" v:val="VT4(Equipment)"/>
				<v:cp v:nameU="ShapeType" v:lbl="ShapeType" v:prompt="" v:type="0" v:format="" v:sortKey="" v:invis="true"
						v:ask="false" v:langID="1033" v:cal="0" v:val="VT4(Computer)"/>
				<v:cp v:nameU="SubShapeType" v:lbl="SubShapeType" v:prompt="" v:type="0" v:format="" v:sortKey="" v:invis="true"
						v:ask="false" v:langID="1033" v:cal="0" v:val="VT4(Laptop)"/>
			</v:custProps>
			<v:userDefs>
				<v:ud v:nameU="visVersion" v:prompt="" v:val="VT0(15):26"/>
				<v:ud v:nameU="ShapeClass" v:prompt="" v:val="VT0(5):26"/>
				<v:ud v:nameU="SolSH" v:prompt="" v:val="VT15({BF0433D9-CD73-4EB5-8390-8653BE590246}):41"/>
				<v:ud v:nameU="visLegendShape" v:prompt="" v:val="VT0(2):26"/>
			</v:userDefs>
			<title>Laptop</title>
			<g id="shape10-29" v:mID="10" v:groupContext="shape" transform="translate(0,-4.16653)">
				<title>Sheet.10</title>
				<path d="M0 612 L45 612 L45 607.28 L41.15 600.77 L3.63 600.77 L0 607.28 L0 612 ZM41.27 599.7 L41.27 579.1 C41.27
							 577.02 39.58 575.33 37.5 575.33 L7.39 575.33 C5.31 575.33 3.63 577.02 3.63 579.1 L3.63 599.7 L41.27
							 599.7 Z" class="st2"/>
			</g>
			<g id="shape11-32" v:mID="11" v:groupContext="shape" transform="translate(4.42753,-9.41447)">
				<title>Sheet.11</title>
				<v:userDefs>
					<v:ud v:nameU="SurroundingRegionColor" v:prompt="" v:val="VT0(1):26"/>
					<v:ud v:nameU="SurroundingRegionColor" v:prompt="" v:val="VT5(#405369)"/>
				</v:userDefs>
				<path d="M1.82 608.75 L0 612 L36.06 612 L34.25 608.75 L1.82 608.75 Z" class="st4"/>
			</g>
			<g id="shape12-35" v:mID="12" v:groupContext="shape" transform="translate(7.25542,-20.3874)">
				<title>Sheet.12</title>
				<v:userDefs>
					<v:ud v:nameU="SurroundingRegionColor" v:prompt="" v:val="VT0(1):26"/>
					<v:ud v:nameU="SurroundingRegionColor" v:prompt="" v:val="VT5(#405369)"/>
				</v:userDefs>
				<rect x="0" y="595.077" width="30.4896" height="16.9233" class="st3"/>
			</g>
		</g>
		<g id="group13-38" transform="translate(127,-331.875)" v:mID="13" v:groupContext="group">
			<v:custProps>
				<v:cp v:nameU="AssetNumber" v:lbl="Asset Number" v:prompt="" v:type="0" v:format="" v:sortKey="Asset"
						v:invis="false" v:ask="false" v:langID="1033" v:cal="0"/>
				<v:cp v:nameU="SerialNumber" v:lbl="Serial Number" v:prompt="" v:type="0" v:format="" v:sortKey="Asset"
						v:invis="false" v:ask="false" v:langID="1033" v:cal="0"/>
				<v:cp v:nameU="Location" v:lbl="Location" v:prompt="" v:type="0" v:format="" v:sortKey="Asset" v:invis="false"
						v:ask="false" v:langID="1033" v:cal="0"/>
				<v:cp v:nameU="Building" v:lbl="Building" v:prompt="" v:type="0" v:format="" v:sortKey="Asset" v:invis="false"
						v:ask="false" v:langID="1033" v:cal="0"/>
				<v:cp v:nameU="Room" v:lbl="Room" v:prompt="" v:type="0" v:format="" v:sortKey="Asset" v:invis="false"
						v:ask="false" v:langID="1033" v:cal="0"/>
				<v:cp v:nameU="Manufacturer" v:lbl="Manufacturer" v:prompt="" v:type="0" v:format="" v:sortKey="Equipment"
						v:invis="false" v:ask="false" v:langID="1033" v:cal="0"/>
				<v:cp v:nameU="ProductNumber" v:lbl="Product Number" v:prompt="" v:type="0" v:format="" v:sortKey="Equipment"
						v:invis="false" v:ask="false" v:langID="1033" v:cal="0"/>
				<v:cp v:nameU="PartNumber" v:lbl="Part Number" v:prompt="" v:type="0" v:format="" v:sortKey="Equipment"
						v:invis="false" v:ask="false" v:langID="1033" v:cal="0"/>
				<v:cp v:nameU="ProductDescription" v:lbl="Product Description" v:prompt="" v:type="0" v:format=""
						v:sortKey="Equipment" v:invis="false" v:ask="false" v:langID="1033" v:cal="0"/>
				<v:cp v:nameU="NetworkName" v:lbl="Network Name" v:prompt="" v:type="0" v:format="" v:sortKey="Network"
						v:invis="false" v:ask="false" v:langID="1033" v:cal="0"/>
				<v:cp v:nameU="IPAddress" v:lbl="IP Address" v:prompt="" v:type="0" v:format="" v:sortKey="Network" v:invis="false"
						v:ask="false" v:langID="1033" v:cal="0"/>
				<v:cp v:nameU="SubnetMask" v:lbl="Subnet Mask" v:prompt="" v:type="0" v:format="" v:sortKey="Network"
						v:invis="false" v:ask="false" v:langID="1033" v:cal="0"/>
				<v:cp v:nameU="AdminInterface" v:lbl="Administrative Interface" v:prompt="" v:type="0" v:format=""
						v:sortKey="Network" v:invis="false" v:ask="false" v:langID="1033" v:cal="0"/>
				<v:cp v:nameU="NumberofPorts" v:lbl="Number of Ports" v:prompt="" v:type="0" v:format="" v:sortKey="Network"
						v:invis="false" v:ask="false" v:langID="1033" v:cal="0"/>
				<v:cp v:nameU="CommunityString" v:lbl="Community String" v:prompt="" v:type="0" v:format="" v:sortKey="Network"
						v:invis="false" v:ask="false" v:langID="1033" v:cal="0"/>
				<v:cp v:nameU="NetworkDescription" v:lbl="Network Description" v:prompt="" v:type="0" v:format=""
						v:sortKey="Network" v:invis="false" v:ask="false" v:langID="1033" v:cal="0"/>
				<v:cp v:nameU="MACAddress" v:lbl="MAC Address" v:prompt="" v:type="0" v:format="" v:sortKey="Network"
						v:invis="false" v:ask="false" v:langID="1033" v:cal="0"/>
				<v:cp v:nameU="CPU" v:lbl="CPU" v:prompt="" v:type="0" v:format="" v:sortKey="Workstation" v:invis="false"
						v:ask="false" v:langID="1033" v:cal="0"/>
				<v:cp v:nameU="Memory" v:lbl="Memory" v:prompt="" v:type="0" v:format="" v:sortKey="Workstation" v:invis="false"
						v:ask="false" v:langID="1033" v:cal="0"/>
				<v:cp v:nameU="OperatingSystem" v:lbl="Operating System" v:prompt="" v:type="0" v:format="" v:sortKey="Workstation"
						v:invis="false" v:ask="false" v:langID="1033" v:cal="0"/>
				<v:cp v:nameU="HardDriveSize" v:lbl="Hard Drive Capacity" v:prompt="" v:type="0" v:format=""
						v:sortKey="Workstation" v:invis="false" v:ask="false" v:langID="1033" v:cal="0"/>
				<v:cp v:nameU="Department" v:lbl="Department" v:prompt="" v:type="0" v:format="" v:sortKey="" v:invis="false"
						v:ask="false" v:langID="1033" v:cal="0"/>
				<v:cp v:nameU="ShapeClass" v:lbl="ShapeClass" v:prompt="" v:type="0" v:format="" v:sortKey="" v:invis="true"
						v:ask="false" v:langID="1033" v:cal="0" v:val="VT4(Equipment)"/>
				<v:cp v:nameU="ShapeType" v:lbl="ShapeType" v:prompt="" v:type="0" v:format="" v:sortKey="" v:invis="true"
						v:ask="false" v:langID="1033" v:cal="0" v:val="VT4(Computer)"/>
				<v:cp v:nameU="SubShapeType" v:lbl="SubShapeType" v:prompt="" v:type="0" v:format="" v:sortKey="" v:invis="true"
						v:ask="false" v:langID="1033" v:cal="0" v:val="VT4(Desktop)"/>
				<v:cp v:nameU="BelongsTo" v:lbl="Belongs To" v:prompt="" v:type="0" v:format="" v:sortKey="" v:invis="true"
						v:ask="false" v:langID="1033" v:cal="0"/>
			</v:custProps>
			<v:userDefs>
				<v:ud v:nameU="visVersion" v:prompt="" v:val="VT0(15):26"/>
				<v:ud v:nameU="ShapeClass" v:prompt="" v:val="VT0(5):26"/>
				<v:ud v:nameU="SolSH" v:prompt="" v:val="VT15({BF0433D9-CD73-4EB5-8390-8653BE590246}):41"/>
				<v:ud v:nameU="visLegendShape" v:prompt="" v:val="VT0(2):26"/>
			</v:userDefs>
			<title>PC</title>
			<g id="shape14-39" v:mID="14" v:groupContext="shape" transform="translate(0,-3.00112)">
				<title>Sheet.14</title>
				<path d="M30.48 600.95 L30.48 604.75 L32.78 604.75 L34.95 607.47 L45 607.47 L45 573 L30.48 573 L30.48 577.95 L36.71
							 577.95 L36.71 600.95 L30.48 600.95 ZM36.71 577.95 L2.24 577.95 L2.24 600.95 L36.71 600.95 L36.71 577.95
							 ZM38.57 612 L32.78 604.75 L5.78 604.75 L0 612 L38.57 612 ZM22.31 600.95 L16.25 600.95 L16.25 604.75
							 L22.31 604.75 L22.31 600.95 Z" class="st2"/>
			</g>
			<g id="shape15-42" v:mID="15" v:groupContext="shape" transform="translate(4.47854,-16.1245)">
				<title>Sheet.15</title>
				<v:userDefs>
					<v:ud v:nameU="SurroundingRegionColor" v:prompt="" v:val="VT0(1):26"/>
					<v:ud v:nameU="SurroundingRegionColor" v:prompt="" v:val="VT5(#405369)"/>
				</v:userDefs>
				<path d="M30.05 593.35 L0 593.35 L0 612 L30.05 612 L30.05 593.35 Z" class="st3"/>
			</g>
			<g id="shape16-45" v:mID="16" v:groupContext="shape" transform="translate(5.24845,-4.49811)">
				<title>Sheet.16</title>
				<v:userDefs>
					<v:ud v:nameU="SurroundingRegionColor" v:prompt="" v:val="VT0(1):26"/>
					<v:ud v:nameU="SurroundingRegionColor" v:prompt="" v:val="VT5(#405369)"/>
				</v:userDefs>
				<path d="M33.94 578.36 L37.05 578.36 L37.05 577.15 L33.94 577.15 L33.94 578.36 ZM33.94 580.52 L37.05 580.52 L37.05
							 579.31 L33.94 579.31 L33.94 580.52 ZM26.33 609.19 L24.62 609.19 L25.58 610.25 L27.43 610.25 L26.33 609.19
							 ZM24.4 607.3 L22.92 607.3 L23.95 608.44 L25.57 608.44 L24.4 607.3 ZM23.7 609.19 L21.98 609.19 L22.74
							 610.25 L24.59 610.25 L23.7 609.19 ZM22.13 607.3 L20.65 607.3 L21.46 608.44 L23.08 608.44 L22.13 607.3
							 ZM21.06 609.19 L19.35 609.19 L19.9 610.25 L21.74 610.25 L21.06 609.19 ZM19.86 607.3 L18.38 607.3 L18.97
							 608.47 L20.6 608.47 L19.86 607.3 ZM18.43 609.19 L16.71 609.19 L17.05 610.25 L18.9 610.25 L18.43 609.19
							 ZM17.62 607.38 L16.13 607.38 L16.48 608.47 L18.1 608.47 L17.62 607.38 ZM15.79 609.19 L14.08 609.19 L14.21
							 610.25 L16.06 610.25 L15.79 609.19 ZM15.36 607.47 L13.86 607.47 L13.99 608.53 L15.62 608.53 L15.36 607.47
							 ZM13.05 607.47 L11.55 607.47 L11.48 608.53 L13.11 608.53 L13.05 607.47 ZM13.15 609.19 L11.44 609.19
							 L11.37 610.25 L13.22 610.25 L13.15 609.19 ZM10.75 607.47 L9.25 607.47 L8.97 608.53 L10.6 608.53 L10.75
							 607.47 ZM10.52 609.19 L8.8 609.19 L8.53 610.25 L10.37 610.25 L10.52 609.19 ZM19.92 610.93 L7.83 610.93
							 L7.51 612 L20.44 612 L19.92 610.93 ZM8.44 607.47 L6.94 607.47 L6.46 608.53 L8.09 608.53 L8.44 607.47
							 ZM7.88 609.19 L6.17 609.19 L5.68 610.25 L7.53 610.25 L7.88 609.19 ZM6.14 607.47 L4.64 607.47 L3.95 608.53
							 L5.58 608.53 L6.14 607.47 ZM5.24 609.19 L3.53 609.19 L2.84 610.25 L4.69 610.25 L5.24 609.19 ZM3.83 607.47
							 L2.34 607.47 L1.44 608.53 L3.07 608.53 L3.83 607.47 ZM2.61 609.19 L0.89 609.19 L0 610.25 L1.85 610.25
							 L2.61 609.19 Z" class="st4"/>
			</g>
		</g>
		<g id="group17-48" transform="translate(127,-388.125)" v:mID="17" v:groupContext="group">
			<v:custProps>
				<v:cp v:nameU="AssetNumber" v:lbl="Asset Number" v:prompt="" v:type="0" v:format="" v:sortKey="Asset"
						v:invis="false" v:ask="false" v:langID="1033" v:cal="0"/>
				<v:cp v:nameU="SerialNumber" v:lbl="Serial Number" v:prompt="" v:type="0" v:format="" v:sortKey="Asset"
						v:invis="false" v:ask="false" v:langID="1033" v:cal="0"/>
				<v:cp v:nameU="Location" v:lbl="Location" v:prompt="" v:type="0" v:format="" v:sortKey="Asset" v:invis="false"
						v:ask="false" v:langID="1033" v:cal="0"/>
				<v:cp v:nameU="Building" v:lbl="Building" v:prompt="" v:type="0" v:format="" v:sortKey="Asset" v:invis="false"
						v:ask="false" v:langID="1033" v:cal="0"/>
				<v:cp v:nameU="Room" v:lbl="Room" v:prompt="" v:type="0" v:format="" v:sortKey="Asset" v:invis="false"
						v:ask="false" v:langID="1033" v:cal="0"/>
				<v:cp v:nameU="Manufacturer" v:lbl="Manufacturer" v:prompt="" v:type="0" v:format="" v:sortKey="Equipment"
						v:invis="false" v:ask="false" v:langID="1033" v:cal="0"/>
				<v:cp v:nameU="ProductNumber" v:lbl="Product Number" v:prompt="" v:type="0" v:format="" v:sortKey="Equipment"
						v:invis="false" v:ask="false" v:langID="1033" v:cal="0"/>
				<v:cp v:nameU="PartNumber" v:lbl="Part Number" v:prompt="" v:type="0" v:format="" v:sortKey="Equipment"
						v:invis="false" v:ask="false" v:langID="1033" v:cal="0"/>
				<v:cp v:nameU="ProductDescription" v:lbl="Product Description" v:prompt="" v:type="0" v:format=""
						v:sortKey="Equipment" v:invis="false" v:ask="false" v:langID="1033" v:cal="0"/>
				<v:cp v:nameU="NetworkName" v:lbl="Network Name" v:prompt="" v:type="0" v:format="" v:sortKey="Network"
						v:invis="false" v:ask="false" v:langID="1033" v:cal="0"/>
				<v:cp v:nameU="IPAddress" v:lbl="IP Address" v:prompt="" v:type="0" v:format="" v:sortKey="Network" v:invis="false"
						v:ask="false" v:langID="1033" v:cal="0"/>
				<v:cp v:nameU="SubnetMask" v:lbl="Subnet Mask" v:prompt="" v:type="0" v:format="" v:sortKey="Network"
						v:invis="false" v:ask="false" v:langID="1033" v:cal="0"/>
				<v:cp v:nameU="AdminInterface" v:lbl="Administrative Interface" v:prompt="" v:type="0" v:format=""
						v:sortKey="Network" v:invis="false" v:ask="false" v:langID="1033" v:cal="0"/>
				<v:cp v:nameU="NumberofPorts" v:lbl="Number of Ports" v:prompt="" v:type="0" v:format="" v:sortKey="Network"
						v:invis="false" v:ask="false" v:langID="1033" v:cal="0"/>
				<v:cp v:nameU="CommunityString" v:lbl="Community String" v:prompt="" v:type="0" v:format="" v:sortKey="Network"
						v:invis="false" v:ask="false" v:langID="1033" v:cal="0"/>
				<v:cp v:nameU="NetworkDescription" v:lbl="Network Description" v:prompt="" v:type="0" v:format=""
						v:sortKey="Network" v:invis="false" v:ask="false" v:langID="1033" v:cal="0"/>
				<v:cp v:nameU="MACAddress" v:lbl="MAC Address" v:prompt="" v:type="0" v:format="" v:sortKey="Network"
						v:invis="false" v:ask="false" v:langID="1033" v:cal="0"/>
				<v:cp v:nameU="CPU" v:lbl="CPU" v:prompt="" v:type="0" v:format="" v:sortKey="Workstation" v:invis="false"
						v:ask="false" v:langID="1033" v:cal="0"/>
				<v:cp v:nameU="Memory" v:lbl="Memory" v:prompt="" v:type="0" v:format="" v:sortKey="Workstation" v:invis="false"
						v:ask="false" v:langID="1033" v:cal="0"/>
				<v:cp v:nameU="OperatingSystem" v:lbl="Operating System" v:prompt="" v:type="0" v:format="" v:sortKey="Workstation"
						v:invis="false" v:ask="false" v:langID="1033" v:cal="0"/>
				<v:cp v:nameU="HardDriveSize" v:lbl="Hard Drive Capacity" v:prompt="" v:type="0" v:format=""
						v:sortKey="Workstation" v:invis="false" v:ask="false" v:langID="1033" v:cal="0"/>
				<v:cp v:nameU="ShapeClass" v:lbl="ShapeClass" v:prompt="" v:type="0" v:format="" v:sortKey="" v:invis="true"
						v:ask="false" v:langID="1033" v:cal="0" v:val="VT4(Equipment)"/>
				<v:cp v:nameU="ShapeType" v:lbl="ShapeType" v:prompt="" v:type="0" v:format="" v:sortKey="" v:invis="true"
						v:ask="false" v:langID="1033" v:cal="0" v:val="VT4(MobilePhone)"/>
			</v:custProps>
			<v:userDefs>
				<v:ud v:nameU="visVersion" v:prompt="" v:val="VT0(15):26"/>
				<v:ud v:nameU="ShapeClass" v:prompt="" v:val="VT0(5):26"/>
				<v:ud v:nameU="SolSH" v:prompt="" v:val="VT15({BF0433D9-CD73-4EB5-8390-8653BE590246}):41"/>
				<v:ud v:nameU="visLegendShape" v:prompt="" v:val="VT0(2):26"/>
			</v:userDefs>
			<title>Smart phone</title>
			<g id="shape18-49" v:mID="18" v:groupContext="shape" transform="translate(10.6104,0)">
				<title>Sheet.18</title>
				<path d="M0 609.2 C0 610.19 0.8 611.1 1.78 611.23 C1.78 611.23 7.58 612 11.89 612 C16.2 612 22 611.23 22 611.23 C22.98
							 611.1 23.78 610.19 23.78 609.2 L23.78 569.8 C23.78 568.81 22.98 567.9 22 567.77 C22 567.77 16.3 567
							 11.89 567 C7.58 567 1.78 567.77 1.78 567.77 C0.8 567.9 0 568.81 0 569.8 L0 609.2 Z" class="st2"/>
			</g>
			<g id="shape19-52" v:mID="19" v:groupContext="shape" transform="translate(12.4048,-5.52562)">
				<title>Sheet.19</title>
				<v:userDefs>
					<v:ud v:nameU="SurroundingRegionColor" v:prompt="" v:val="VT0(1):26"/>
					<v:ud v:nameU="SurroundingRegionColor" v:prompt="" v:val="VT5(#405369)"/>
				</v:userDefs>
				<rect x="0" y="578.923" width="20.1905" height="33.0773" class="st3"/>
			</g>
			<g id="shape20-55" v:mID="20" v:groupContext="shape" transform="translate(18.7915,-2.24438)">
				<title>Sheet.20</title>
				<v:userDefs>
					<v:ud v:nameU="SurroundingRegionColor" v:prompt="" v:val="VT0(1):26"/>
					<v:ud v:nameU="SurroundingRegionColor" v:prompt="" v:val="VT5(#405369)"/>
				</v:userDefs>
				<path d="M1.6 611.2 a0.800156 0.800156 -180 1 0 -1.60031 0 a0.800156 0.800156 -180 1 0 1.60031 0 ZM4.51 611.2 a0.800156
							 0.800156 -180 1 0 -1.60031 0 a0.800156 0.800156 -180 1 0 1.60031 0 ZM7.42 611.2 a0.800625 0.800625 -180
							 1 0 -1.60125 0 a0.800625 0.800625 -180 1 0 1.60125 0 Z" class="st4"/>
				<path d="M0.74 572.92 L6.68 572.92" class="st9"/>
			</g>
		</g>
		<g id="shape21-58" v:mID="21" v:groupContext="shape" transform="translate(73,-444.375)">
			<title>Sheet.21</title>
			<desc>Target Endpoints</desc>
			<v:textBlock v:margins="rect(4,4,4,4)"/>
			<v:textRect cx="76" cy="602" width="152.01" height="20"/>
			<rect x="0" y="592" width="152" height="20" class="st10"/>
			<text x="11.69" y="607.4" class="st11" v:langID="1033"><v:paragraph v:horizAlign="1"/><v:tabList/>Target Endpoints</text>		</g>
		<g id="shape25-61" v:mID="25" v:groupContext="shape" transform="translate(238.5,-288)">
			<title>Rounded Rectangle</title>
			<desc>Collection Controller</desc>
			<v:userDefs>
				<v:ud v:nameU="CTypeTopLeftSnip" v:prompt="" v:val="VT0(0):5"/>
				<v:ud v:nameU="CTypeTopRightSnip" v:prompt="" v:val="VT0(0):5"/>
				<v:ud v:nameU="CTypeBotLeftSnip" v:prompt="" v:val="VT0(0):5"/>
				<v:ud v:nameU="CTypeBotRightSnip" v:prompt="" v:val="VT0(0):5"/>
				<v:ud v:nameU="CornerLockHoriz" v:prompt="" v:val="VT0(1):5"/>
				<v:ud v:nameU="CornerLockVert" v:prompt="" v:val="VT0(1):5"/>
				<v:ud v:nameU="CornerLockDiag" v:prompt="" v:val="VT0(0):5"/>
				<v:ud v:nameU="TopLeftOffset" v:prompt="" v:val="VT0(0.15):1"/>
				<v:ud v:nameU="TopRightOffset" v:prompt="" v:val="VT0(0.15):1"/>
				<v:ud v:nameU="BotLeftOffset" v:prompt="" v:val="VT0(0.15):1"/>
				<v:ud v:nameU="BotRightOffset" v:prompt="" v:val="VT0(0.15):1"/>
				<v:ud v:nameU="visVersion" v:prompt="" v:val="VT0(15):26"/>
			</v:userDefs>
			<v:textBlock v:margins="rect(4,4,4,4)"/>
			<v:textRect cx="54" cy="576" width="108" height="72"/>
			<path d="M10.8 612 L97.2 612 A10.7998 10.7998 -180 0 0 108 601.2 L108 550.8 A10.7998 10.7998 -180 0 0 97.2 540 L10.8
						 540 A10.7998 10.7998 -180 0 0 0 550.8 L0 601.2 A10.7998 10.7998 -180 0 0 10.8 612 Z" class="st12"/>
			<text x="16.66" y="570.6" class="st13" v:langID="1033"><v:paragraph v:horizAlign="1"/><v:tabList/>Collection<v:newlineChar/><tspan
						x="16.99" dy="1.2em" class="st14">Controller</tspan></text>		</g>
		<g id="shape26-65" v:mID="26" v:groupContext="shape" transform="translate(771.75,392.625) rotate(90)">
			<title>Right Brace</title>
			<v:userDefs>
				<v:ud v:nameU="visVersion" v:prompt="" v:val="VT0(15):26"/>
			</v:userDefs>
			<path d="M0 612 A38.5574 14.3084 -180 0 0 14.4 603.45 L14.4 569.25 L28.8 569.25 L14.4 569.25 L14.4 535.05 A38.5574 14.3084
						 -180 0 0 -0 526.5" class="st8"/>
		</g>
		<g id="shape27-69" v:mID="27" v:groupContext="shape" transform="translate(127,-108)">
			<title>Sheet.27</title>
			<desc>Management Protocol Interfaces</desc>
			<v:textBlock v:margins="rect(4,4,4,4)"/>
			<v:textRect cx="76" cy="576" width="152.01" height="72"/>
			<rect x="0" y="540" width="152" height="72" class="st10"/>
			<text x="25.55" y="559.8" class="st15" v:langID="1033"><v:paragraph v:horizAlign="1"/><v:tabList/>Management <tspan
						x="44.94" dy="1.2em" class="st14">Protocol<v:newlineChar/></tspan><tspan x="37.94" dy="1.2em" class="st14">Interfaces</tspan></text>		</g>
		<g id="shape29-74" v:mID="29" v:groupContext="shape" v:layerMember="0" transform="translate(240.52,-355.488)">
			<title>Dynamic connector</title>
			<path d="M-5.75 608.51 L-6.06 608.33 L-71.99 568.39" class="st16"/>
		</g>
		<g id="shape30-83" v:mID="30" v:groupContext="shape" v:layerMember="0" transform="translate(238.5,-333.533)">
			<title>Dynamic connector.30</title>
			<path d="M-6.58 608.66 L-6.93 608.59 L-58.33 597.67" class="st16"/>
		</g>
		<g id="shape31-90" v:mID="31" v:groupContext="shape" v:layerMember="0" transform="translate(238.5,-316.875)">
			<title>Dynamic connector.31</title>
			<path d="M-6.62 615.84 L-6.97 615.91 L-62.02 625.87" class="st16"/>
		</g>
		<g id="shape32-97" v:mID="32" v:groupContext="shape" v:layerMember="0" transform="translate(239.048,-295.405)">
			<title>Dynamic connector.32</title>
			<path d="M-5.93 615.17 L-6.25 615.34 L-60.29 644.25" class="st16"/>
		</g>
		<g id="shape37-104" v:mID="37" v:groupContext="shape" transform="translate(483.75,-402.75)">
			<title>Rounded Rectangle.37</title>
			<desc>Data Store</desc>
			<v:userDefs>
				<v:ud v:nameU="CTypeTopLeftSnip" v:prompt="" v:val="VT0(0):5"/>
				<v:ud v:nameU="CTypeTopRightSnip" v:prompt="" v:val="VT0(0):5"/>
				<v:ud v:nameU="CTypeBotLeftSnip" v:prompt="" v:val="VT0(0):5"/>
				<v:ud v:nameU="CTypeBotRightSnip" v:prompt="" v:val="VT0(0):5"/>
				<v:ud v:nameU="CornerLockHoriz" v:prompt="" v:val="VT0(1):5"/>
				<v:ud v:nameU="CornerLockVert" v:prompt="" v:val="VT0(1):5"/>
				<v:ud v:nameU="CornerLockDiag" v:prompt="" v:val="VT0(0):5"/>
				<v:ud v:nameU="TopLeftOffset" v:prompt="" v:val="VT0(0.15):1"/>
				<v:ud v:nameU="TopRightOffset" v:prompt="" v:val="VT0(0.15):1"/>
				<v:ud v:nameU="BotLeftOffset" v:prompt="" v:val="VT0(0.15):1"/>
				<v:ud v:nameU="BotRightOffset" v:prompt="" v:val="VT0(0.15):1"/>
				<v:ud v:nameU="visVersion" v:prompt="" v:val="VT0(15):26"/>
			</v:userDefs>
			<v:textBlock v:margins="rect(4,4,4,4)"/>
			<v:textRect cx="54" cy="576" width="108" height="72"/>
			<path d="M10.8 612 L97.2 612 A10.7998 10.7998 -180 0 0 108 601.2 L108 550.8 A10.7998 10.7998 -180 0 0 97.2 540 L10.8
						 540 A10.7998 10.7998 -180 0 0 0 550.8 L0 601.2 A10.7998 10.7998 -180 0 0 10.8 612 Z" class="st2"/>
			<text x="13.38" y="581.4" class="st13" v:langID="1033"><v:paragraph v:horizAlign="1"/><v:tabList/>Data Store</text>		</g>
		<g id="shape38-108" v:mID="38" v:groupContext="shape" transform="translate(483.75,-225)">
			<title>Rounded Rectangle.38</title>
			<desc>Evaluator</desc>
			<v:userDefs>
				<v:ud v:nameU="CTypeTopLeftSnip" v:prompt="" v:val="VT0(0):5"/>
				<v:ud v:nameU="CTypeTopRightSnip" v:prompt="" v:val="VT0(0):5"/>
				<v:ud v:nameU="CTypeBotLeftSnip" v:prompt="" v:val="VT0(0):5"/>
				<v:ud v:nameU="CTypeBotRightSnip" v:prompt="" v:val="VT0(0):5"/>
				<v:ud v:nameU="CornerLockHoriz" v:prompt="" v:val="VT0(1):5"/>
				<v:ud v:nameU="CornerLockVert" v:prompt="" v:val="VT0(1):5"/>
				<v:ud v:nameU="CornerLockDiag" v:prompt="" v:val="VT0(0):5"/>
				<v:ud v:nameU="TopLeftOffset" v:prompt="" v:val="VT0(0.15):1"/>
				<v:ud v:nameU="TopRightOffset" v:prompt="" v:val="VT0(0.15):1"/>
				<v:ud v:nameU="BotLeftOffset" v:prompt="" v:val="VT0(0.15):1"/>
				<v:ud v:nameU="BotRightOffset" v:prompt="" v:val="VT0(0.15):1"/>
				<v:ud v:nameU="visVersion" v:prompt="" v:val="VT0(15):26"/>
			</v:userDefs>
			<v:textBlock v:margins="rect(4,4,4,4)"/>
			<v:textRect cx="54" cy="576" width="108" height="72"/>
			<path d="M10.8 612 L97.2 612 A10.7998 10.7998 -180 0 0 108 601.2 L108 550.8 A10.7998 10.7998 -180 0 0 97.2 540 L10.8
						 540 A10.7998 10.7998 -180 0 0 0 550.8 L0 601.2 A10.7998 10.7998 -180 0 0 10.8 612 Z" class="st2"/>
			<text x="18.11" y="581.4" class="st13" v:langID="1033"><v:paragraph v:horizAlign="1"/><v:tabList/>Evaluator</text>		</g>
		<g id="shape39-112" v:mID="39" v:groupContext="shape" v:layerMember="0" transform="translate(387.511,-336.845)">
			<title>Dynamic connector.39</title>
			<path d="M-6.61 618.4 L-6.97 618.46 L-32.81 623.31" class="st19"/>
		</g>
		<g id="shape40-121" v:mID="40" v:groupContext="shape" v:layerMember="0" transform="translate(506.988,-402.75)">
			<title>Dynamic connector.40</title>
			<path d="M-5.4 617.05 L-5.64 617.32 L-11.53 624.01" class="st19"/>
		</g>
		<g id="shape41-128" v:mID="41" v:groupContext="shape" v:layerMember="0" transform="translate(513.528,-297)">
			<title>Dynamic connector.41</title>
			<path d="M-5.68 606.54 L-5.89 606.25 L-11.37 598.65" class="st19"/>
		</g>
		<g id="shape42-135" v:mID="42" v:groupContext="shape" transform="translate(954,391.5) rotate(90)">
			<title>Right Brace.42</title>
			<v:userDefs>
				<v:ud v:nameU="visVersion" v:prompt="" v:val="VT0(15):26"/>
			</v:userDefs>
			<path d="M0 612 A38.5574 30.123 -180 0 0 14.4 594 L14.4 522 L28.8 522 L14.4 522 L14.4 450 A38.5574 30.123 -180 0 0 0
						 432" class="st8"/>
		</g>
		<g id="shape43-139" v:mID="43" v:groupContext="shape" transform="translate(337.5,-94.5)">
			<title>Sheet.43</title>
			<desc>Messaging and Direct Communication Interfaces</desc>
			<v:textBlock v:margins="rect(4,4,4,4)"/>
			<v:textRect cx="102.375" cy="569.25" width="204.75" height="85.5"/>
			<rect x="0" y="526.5" width="204.75" height="85.5" class="st10"/>
			<text x="20.02" y="553.05" class="st15" v:langID="1033"><v:paragraph v:horizAlign="1"/><v:tabList/>Messaging and Direct <tspan
						x="42.68" dy="1.2em" class="st14">Communication </tspan><tspan x="64.32" dy="1.2em" class="st14">Interfaces</tspan></text>		</g>
		<g id="shape45-144" v:mID="45" v:groupContext="shape" v:layerMember="0" transform="translate(483.75,-274.872)">
			<title>Dynamic connector.45</title>
			<path d="M-6.52 610.33 L-6.86 610.24 L-129.17 578.82" class="st22"/>
		</g>
		<g id="shape46-153" v:mID="46" v:groupContext="shape" v:layerMember="0" transform="translate(483.75,-413.484)">
			<title>Dynamic connector.46</title>
			<path d="M-6.09 614.85 L-6.42 615 L-129.69 672.68" class="st22"/>
		</g>
		<g id="shape47-160" v:mID="47" v:groupContext="shape" v:layerMember="0" transform="translate(528.75,-402.75)">
			<title>Dynamic connector.47</title>
			<path d="M9 618.73 L9 619.09 L9 709.4" class="st22"/>
		</g>
		<g id="group49-167" transform="translate(384.75,-303.75)" v:mID="49" v:groupContext="group">
			<title>Sheet.49</title>
			<g id="shape36-168" v:mID="36" v:groupContext="shape">
				<title>Cloud</title>
				<desc>Messaging Protocol</desc>
				<v:userDefs>
					<v:ud v:nameU="visVersion" v:prompt="" v:val="VT0(15):26"/>
				</v:userDefs>
				<v:textBlock v:margins="rect(4,4,4,4)" v:verticalAlign="0"/>
				<v:textRect cx="69.75" cy="571.5" width="139.5" height="81"/>
				<path d="M6.86 578.85 A11.0165 10.762 0 0 1 12.15 558.18 A22.3403 21.824 0 0 1 44.57 540.73 A25.6528 25.06 0 0 1
							 72.34 536.85 A16.0866 15.7149 0 0 1 96.16 535.55 A18.3149 17.8917 0 0 1 125.27 542.02 A13.0957 12.7926
							 0 0 1 135.85 560.11 A16.2206 15.8453 0 0 1 122.62 585.96 A20.4637 19.9901 0 0 1 93.52 598.88 A24.1284
							 23.5701 0 0 1 53.83 604.05 A30.5859 29.8781 0 0 1 19.43 598.88 A12.0667 11.7879 0 0 1 6.86 578.85 Z"
						class="st25"/>
				<path d="M6.86 578.85 A11.0165 10.762 0 0 1 12.15 558.18 A22.3403 21.824 0 0 1 44.57 540.73 A25.6528 25.06 0 0 1
							 72.34 536.85 A16.0866 15.7149 0 0 1 96.16 535.55 A18.3149 17.8917 0 0 1 125.27 542.02 A13.0957 12.7926
							 0 0 1 135.85 560.11 A16.2206 15.8453 0 0 1 122.62 585.96 A20.4637 19.9901 0 0 1 93.52 598.88 A24.1284
							 23.5701 0 0 1 53.83 604.05 A30.5859 29.8781 0 0 1 19.43 598.88 A12.0667 11.7879 0 0 1 6.86 578.85"
						class="st26"/>
				<path d="M14.13 579.49 A10.9861 10.7322 0 0 1 6.86 578.85" class="st26"/>
				<path d="M51.84 600.82 A11.0339 10.7789 -180 0 0 53.83 604.05" class="st26"/>
				<path d="M94.51 595.01 A8.90704 8.70122 0 0 1 93.52 598.88" class="st26"/>
				<path d="M114.68 575.61 A9.34637 9.1304 0 0 1 122.62 585.96" class="st26"/>
				<path d="M131.88 563.99 A8.53281 8.33564 -180 0 0 135.85 560.11" class="st26"/>
				<path d="M48.53 543.31 A13.1584 12.8539 -180 0 0 44.57 540.73" class="st26"/>
				<text x="20.25" y="560.2" class="st27" v:langID="1033"><v:paragraph v:horizAlign="1"/><v:tabList/><v:newlineChar/>Messaging Protocol</text>			</g>
			<g id="shape48-178" v:mID="48" v:groupContext="shape" transform="translate(29.25,1.5)">
				<title>Rounded Rectangle.48</title>
				<desc>Broker</desc>
				<v:userDefs>
					<v:ud v:nameU="CTypeTopLeftSnip" v:prompt="" v:val="VT0(0):5"/>
					<v:ud v:nameU="CTypeTopRightSnip" v:prompt="" v:val="VT0(0):5"/>
					<v:ud v:nameU="CTypeBotLeftSnip" v:prompt="" v:val="VT0(0):5"/>
					<v:ud v:nameU="CTypeBotRightSnip" v:prompt="" v:val="VT0(0):5"/>
					<v:ud v:nameU="CornerLockHoriz" v:prompt="" v:val="VT0(1):5"/>
					<v:ud v:nameU="CornerLockVert" v:prompt="" v:val="VT0(1):5"/>
					<v:ud v:nameU="CornerLockDiag" v:prompt="" v:val="VT0(0):5"/>
					<v:ud v:nameU="TopLeftOffset" v:prompt="" v:val="VT0(0.15):1"/>
					<v:ud v:nameU="TopRightOffset" v:prompt="" v:val="VT0(0.15):1"/>
					<v:ud v:nameU="BotLeftOffset" v:prompt="" v:val="VT0(0.15):1"/>
					<v:ud v:nameU="BotRightOffset" v:prompt="" v:val="VT0(0.15):1"/>
					<v:ud v:nameU="visVersion" v:prompt="" v:val="VT0(15):26"/>
					<v:ud v:nameU="TopLeftOffset" v:prompt="" v:val="VT0(0.1):1"/>
					<v:ud v:nameU="TopRightOffset" v:prompt="" v:val="VT0(0.1):1"/>
					<v:ud v:nameU="BotLeftOffset" v:prompt="" v:val="VT0(0.1):1"/>
					<v:ud v:nameU="BotRightOffset" v:prompt="" v:val="VT0(0.1):1"/>
				</v:userDefs>
				<v:textBlock v:margins="rect(4,4,4,4)"/>
				<v:textRect cx="36" cy="588" width="72" height="48"/>
				<path d="M7.2 612 L64.8 612 A7.19988 7.19988 -180 0 0 72 604.8 L72 571.2 A7.19988 7.19988 -180 0 0 64.8 564 L7.2
							 564 A7.19988 7.19988 -180 0 0 -0 571.2 L0 604.8 A7.19988 7.19988 -180 0 0 7.2 612 Z" class="st28"/>
				<text x="10.73" y="593.4" class="st13" v:langID="1033"><v:paragraph v:horizAlign="1"/><v:tabList/>Broker</text>			</g>
		</g>
		<g id="shape50-181" v:mID="50" v:groupContext="shape" v:layerMember="0" transform="translate(537.75,-225)">
			<title>Dynamic connector.50</title>
			<path d="M0 618.73 L0 619.09 L0 625.5 L67.5 625.5 L67.5 576 L62.35 576" class="st22"/>
		</g>
	</g>
</svg>
