<svg width="640" height="480" xmlns="http://www.w3.org/2000/svg" xmlns:svg="http://www.w3.org/2000/svg" style="vector-effect: non-scaling-stroke;">
 <!-- Created with SVG-edit - http://svg-edit.googlecode.com/ -->

 <g>
  <title>Layer 1</title>
  <rect id="svg_1" height="66" width="115" y="66.399994" x="56.399994" stroke-width="5" stroke="#000000" fill="#FFFFFF"/>
  <text style="vector-effect: non-scaling-stroke;" transform="matrix(0.481045, 0, 0, 1, -39.4237, 0)" xml:space="preserve" text-anchor="middle" font-family="serif" font-size="24" id="svg_2" y="107.399995" x="310.457748" stroke-width="0" stroke="#000000" fill="#000000">Raw Data Collector</text>
  <rect id="svg_3" height="82.500007" width="111.750009" y="160.199994" x="59.15003" stroke-width="5" stroke="#000000" fill="#FFFFFF"/>
  <text style="vector-effect: non-scaling-stroke;" transform="matrix(0.579461, 0, 0, 1, 68.9948, 0)" xml:space="preserve" text-anchor="middle" font-family="serif" font-size="24" id="svg_4" y="211.949998" x="79.061417" stroke-width="0" stroke="#000000" fill="#000000">SACM Collector</text>
  <path style="vector-effect: non-scaling-stroke;" transform="rotate(90, 111.705, 146.523)" id="svg_5" d="m100.177925,146.524261l6.683571,-7.12529l0,3.56308l9.685898,0l0,-3.56308l6.683701,7.12529l-6.683701,7.12587l0,-3.56279l-9.685898,0l0,3.56279l-6.683571,-7.12587z" stroke-width="5" stroke="#000000" fill="#000000"/>
  <rect id="svg_6" height="69.750006" width="105.750008" y="65.550002" x="201.950013" stroke-linecap="null" stroke-linejoin="null" stroke-dasharray="null" stroke-width="5" stroke="#000000" fill="#FFFFFF"/>
  <text style="vector-effect: non-scaling-stroke;" transform="matrix(0.571202, 0, 0, 1, 125.566, 0)" xml:space="preserve" text-anchor="middle" font-family="serif" font-size="24" id="svg_7" y="108.300005" x="220.886993" stroke-linecap="null" stroke-linejoin="null" stroke-dasharray="null" stroke-width="0" stroke="#000000" fill="#000000">Authenticators</text>
  <rect style="vector-effect: non-scaling-stroke;" id="svg_8" height="64.500005" width="106.500008" y="64.050002" x="325.700023" stroke-linecap="null" stroke-linejoin="null" stroke-dasharray="null" stroke-width="5" stroke="#000000" fill="#FFFFFF"/>
  <text style="vector-effect: non-scaling-stroke;" transform="matrix(0.624713, 0, 0, 1, 161.446, 0)" xml:space="preserve" text-anchor="middle" font-family="serif" font-size="24" id="svg_9" y="100.800004" x="350.450025" stroke-linecap="null" stroke-linejoin="null" stroke-dasharray="null" stroke-width="0" stroke="#000000" fill="#000000">Authorizors</text>
  <rect id="svg_10" height="71.250006" width="124.50001" y="62.550001" x="479.450035" stroke-linecap="null" stroke-linejoin="null" stroke-dasharray="null" stroke-width="5" stroke="#000000" fill="#FFFFFF"/>
  <text style="vector-effect: non-scaling-stroke;" transform="translate(486.747, 75.9492) scale(1.69634, 1) translate(-486.747, -75.9492) translate(487.119, 75.9492) scale(0.921613, 1) translate(-487.119, -75.9492) matrix(0.515586, 0, 0, 1, 266.11, 0)" xml:space="preserve" text-anchor="middle" font-family="serif" font-size="24" id="svg_11" y="106.800005" x="493.700036" stroke-linecap="null" stroke-linejoin="null" stroke-dasharray="null" stroke-width="0" stroke="#000000" fill="#000000">Data Stores</text>
  <rect style="vector-effect: non-scaling-stroke;" id="svg_12" height="64.500005" width="113.250009" y="287.250024" x="61.100011" stroke-linecap="null" stroke-linejoin="null" stroke-dasharray="null" stroke-width="5" stroke="#000000" fill="#FFFFFF"/>
  <text style="vector-effect: non-scaling-stroke;" transform="matrix(0.681396, 0, 0, 1, 52.0082, 0)" xml:space="preserve" text-anchor="middle" font-family="serif" font-size="24" id="svg_13" y="328.500027" x="97.100015" stroke-linecap="null" stroke-linejoin="null" stroke-dasharray="null" stroke-width="0" stroke="#000000" fill="#000000">SACM Proxy</text>
  <path style="vector-effect: non-scaling-stroke;" id="svg_14" d="m138.456497,385.234924c-0.278656,0.008118 -0.548035,0.022614 -0.828033,0.041504c-4.479996,0.319611 -8.434479,2.353119 -10.442757,5.382202l-1.065308,2.293304c0.229958,-0.796844 0.582962,-1.56778 1.065308,-2.293304c-3.582359,-2.653046 -8.610588,-3.87854 -13.578384,-3.30365c-4.968407,0.575378 -9.282913,2.87912 -11.640854,6.22049c-6.656761,-2.931793 -14.954491,-2.755249 -21.37394,0.461945c-6.418846,3.21402 -9.840843,8.908539 -8.800407,14.654694l0.680077,2.333771c-0.30751,-0.762787 -0.536934,-1.540527 -0.680077,-2.333771l-0.103821,0.214294c-5.580421,0.43634 -10.156315,3.528717 -11.345207,7.671356c-1.188148,4.141296 1.283421,8.391968 6.123688,10.534607l7.558334,1.311584c-2.639168,0.158051 -5.273933,-0.300507 -7.558334,-1.311584c-3.733429,2.992035 -4.592503,7.415314 -2.130058,11.072876c2.463234,3.657196 7.723518,5.762207 13.149857,5.284668l3.298454,-0.624695c-1.061325,0.315918 -2.163406,0.52243 -3.298454,0.624695c3.080399,4.05188 8.188629,7.009033 14.18483,8.185944c5.996239,1.176422 12.365181,0.480774 17.675987,-1.924347c4.332222,4.88208 12.020737,7.449066 19.731598,6.584106c7.710327,-0.864014 14.070602,-5.009857 16.329498,-10.632477l0.783875,-3.142059c-0.116928,1.067688 -0.37204,2.120239 -0.783875,3.142059c5.303406,2.487976 11.97464,2.626923 17.453598,0.368713c5.479752,-2.262177 8.89917,-6.573608 8.949066,-11.268677l-1.964294,-7.013214l-7.738495,-4.746948c5.983765,2.679871 9.756104,6.761993 9.702789,11.760162c7.115616,0.056763 13.159164,-4.302856 15.871292,-9.305237c2.712173,-5.003235 1.686508,-10.704468 -2.691879,-14.989716c1.815887,-3.190277 1.707962,-6.817596 -0.295807,-9.940613c-2.004486,-3.126892 -5.70105,-5.449799 -10.147171,-6.359314c-0.994766,-4.142181 -5.096497,-7.475433 -10.516922,-8.565674c-5.419968,-1.089722 -11.191452,0.255768 -14.820511,3.464783l-2.204132,2.657806c0.563187,-0.962677 1.298706,-1.857117 2.204132,-2.657806c-2.558426,-2.521576 -6.570572,-3.945618 -10.753662,-3.852478l0,0z" stroke-linecap="null" stroke-linejoin="null" stroke-dasharray="null" stroke-width="5" stroke="#000000" fill="#ffffff"/>
  <text style="vector-effect: non-scaling-stroke;" transform="matrix(0.511884, 0, 0, 1, 81.6191, 0)" xml:space="preserve" text-anchor="middle" font-family="serif" font-size="24" id="svg_15" y="426.750035" x="85.919661" stroke-linecap="null" stroke-linejoin="null" stroke-dasharray="null" stroke-width="0" stroke="#000000" fill="#000000">SACM CLOUD</text>
  <path transform="rotate(90, 118.457, 372)" id="svg_16" d="m100.349854,371.999146l10.498711,-10.497437l0,5.249146l15.215714,0l0,-5.249146l10.498589,10.497437l-10.498589,10.499176l0,-5.248291l-15.215714,0l0,5.248291l-10.498711,-10.499176z" stroke-linecap="null" stroke-linejoin="null" stroke-dasharray="null" stroke-width="5" stroke="#000000" fill="#FFFFFF"/>
  <rect id="svg_17" height="54.750004" width="114.000009" y="164.250014" x="484.100045" stroke-linecap="null" stroke-linejoin="null" stroke-dasharray="null" stroke-width="5" stroke="#000000" fill="#FFFFFF"/>
  <text style="vector-effect: non-scaling-stroke;" xml:space="preserve" text-anchor="middle" font-family="serif" font-size="24" id="svg_18" y="201.000017" x="541.10005" stroke-linecap="null" stroke-linejoin="null" stroke-dasharray="null" stroke-width="0" stroke="#000000" fill="#000000">Directory</text>
  <rect id="svg_19" height="68.250005" width="114.000009" y="237.00002" x="487.100045" stroke-linecap="null" stroke-linejoin="null" stroke-dasharray="null" stroke-width="5" stroke="#000000" fill="#FFFFFF"/>
  <text style="vector-effect: non-scaling-stroke;" xml:space="preserve" text-anchor="middle" font-family="serif" font-size="24" id="svg_20" y="276.000023" x="546.35005" stroke-linecap="null" stroke-linejoin="null" stroke-dasharray="null" stroke-width="0" stroke="#000000" fill="#000000">Aggregors</text>
  <rect id="svg_21" height="69.000005" width="105.750008" y="326.250027" x="492.350046" stroke-linecap="null" stroke-linejoin="null" stroke-dasharray="null" stroke-width="5" stroke="#000000" fill="#FFFFFF"/>
  <text style="vector-effect: non-scaling-stroke;" transform="matrix(0.746075, 0, 0, 0.722222, 166.137, 102.125)" xml:space="preserve" text-anchor="middle" font-family="serif" font-size="24" id="svg_22" y="362.25003" x="509.600047" stroke-linecap="null" stroke-linejoin="null" stroke-dasharray="null" stroke-width="0" stroke="#000000" fill="#000000">Evaluators</text>
  <rect id="svg_23" height="70.500006" width="107.250009" y="331.500027" x="202.850022" stroke-linecap="null" stroke-linejoin="null" stroke-dasharray="null" stroke-width="5" stroke="#000000" fill="#FFFFFF"/>
  <text style="vector-effect: non-scaling-stroke;" transform="matrix(0.43098, 0, 0, 1, 157.887, 0)" xml:space="preserve" text-anchor="middle" font-family="serif" font-size="24" id="svg_24" y="377.250031" x="218.600024" stroke-linecap="null" stroke-linejoin="null" stroke-dasharray="null" stroke-width="0" stroke="#000000" fill="#000000">Policy Managment</text>
  <path id="svg_25" d="m357.786743,179.270233c-0.461334,0.009155 -0.909332,0.036057 -1.370636,0.068619c-7.417603,0.504211 -13.964233,3.711685 -17.294159,8.495193l-1.763428,3.617447c0.383087,-1.252396 0.966736,-2.468643 1.763428,-3.617447c-5.928864,-4.189911 -14.25531,-6.124344 -22.482391,-5.216309c-8.227081,0.908051 -15.369751,4.546143 -19.274536,9.821793c-11.021362,-4.62912 -24.763367,-4.349899 -35.392822,0.730209c-10.629608,5.076691 -16.292465,14.068207 -14.573929,23.139252l1.127411,3.688324c-0.509171,-1.207748 -0.887405,-2.438843 -1.127411,-3.688324l-0.169464,0.3414c-9.241257,0.685059 -16.819458,5.572449 -18.786209,12.112473c-1.967896,6.54007 2.123734,13.252304 10.141281,16.631927l12.514359,2.074539c-4.370331,0.245895 -8.731339,-0.478073 -12.514359,-2.074539c-6.184799,4.721039 -7.603973,11.712326 -3.529556,17.483658c4.07814,5.771606 12.788696,9.097931 21.776703,8.344269l5.458923,-0.988159c-1.75473,0.501495 -3.58255,0.828003 -5.458923,0.988159c5.101746,6.400574 13.559448,11.071411 23.488129,12.928619c9.929138,1.857941 20.471771,0.760101 29.268494,-3.041687c7.173615,7.712463 19.906097,11.762665 32.673187,10.397766c12.766052,-1.364929 23.295807,-7.907837 27.039551,-16.786224l1.297119,-4.961212c-0.195374,1.685089 -0.618561,3.344086 -1.297119,4.961212c8.77948,3.92569 19.827698,4.148621 28.898315,0.578766c9.071289,-3.569977 14.73465,-10.377258 14.817261,-17.789307l-3.252319,-11.07692l-12.81485,-7.492722c9.907837,4.231445 16.158783,10.676682 16.067169,18.569641c11.78363,0.082947 21.790558,-6.798477 26.282318,-14.69725c4.487671,-7.899338 2.790131,-16.902161 -4.45755,-23.667572c3.004089,-5.03569 2.825256,-10.762405 -0.491547,-15.697418c-3.316559,-4.93486 -9.440857,-8.602478 -16.802002,-10.041336c-1.645447,-6.540009 -8.43985,-11.801651 -17.411163,-13.525543c-8.975677,-1.724197 -18.535095,0.403702 -24.541718,5.471878l-3.651459,4.196075c0.931244,-1.516617 2.150055,-2.931885 3.651459,-4.196075c-4.239502,-3.985184 -10.882111,-6.231277 -17.807556,-6.083176l0,0z" stroke-linecap="null" stroke-linejoin="null" stroke-dasharray="null" stroke-width="5" stroke="#000000" fill="#FFFFFF"/>
  <rect id="svg_26" height="65.250005" width="105.750008" y="334.500027" x="343.100034" stroke-linecap="null" stroke-linejoin="null" stroke-dasharray="null" stroke-width="5" stroke="#000000" fill="#FFFFFF"/>
  <text style="vector-effect: non-scaling-stroke;" transform="matrix(0.598924, 0, 0, 1, 176.218, 0)" xml:space="preserve" text-anchor="middle" font-family="serif" font-size="24" id="svg_27" y="376.500031" x="367.100036" stroke-linecap="null" stroke-linejoin="null" stroke-dasharray="null" stroke-width="0" stroke="#000000" fill="#000000">External Event</text>
  <text style="vector-effect: non-scaling-stroke;" transform="matrix(1.06444, 0, 0, 1, 28.187, 0)" xml:space="preserve" text-anchor="middle" font-family="serif" font-size="24" id="svg_28" y="238.800037" x="283.850029" stroke-linecap="null" stroke-linejoin="null" stroke-dasharray="null" stroke-width="0" stroke="#000000" fill="#000000">SACM Cloud</text>
  <path style="vector-effect: non-scaling-stroke;" transform="rotate(20, 199.766, 207.729)" id="svg_29" d="m174.10614,207.730728l14.878708,-6.749725l0,3.374725l21.56311,0l0,-3.374725l14.879333,6.749725l-14.879333,6.75l0,-3.375l-21.56311,0l0,3.375l-14.878708,-6.75z" stroke-linecap="null" stroke-linejoin="null" stroke-dasharray="null" stroke-width="5" stroke="#000000" fill="#000000"/>
  <path style="vector-effect: non-scaling-stroke;" transform="rotate(70, 264.177, 160.16)" id="svg_30" d="m240.258682,160.160004l13.87114,-7.60997l0,3.805283l20.1026,0l0,-3.805283l13.870117,7.60997l-13.870117,7.610504l0,-3.805237l-20.1026,0l0,3.805237l-13.87114,-7.610504z" stroke-linecap="null" stroke-linejoin="null" stroke-dasharray="null" stroke-width="5" stroke="#000000" fill="#000000"/>
  <path style="vector-effect: non-scaling-stroke;" transform="rotate(90, 363.816, 153.902)" id="svg_31" d="m345.818115,153.902557l10.437256,-19.678757l0,9.839142l15.126221,0l0,-9.839142l10.436768,19.678757l-10.436768,19.678314l0,-9.837769l-15.126221,0l0,9.837769l-10.437256,-19.678314z" stroke-linecap="null" stroke-linejoin="null" stroke-dasharray="null" stroke-width="5" stroke="#000000" fill="#000000"/>
  <path style="vector-effect: non-scaling-stroke;" transform="rotate(135, 450.282, 160.435)" id="svg_32" d="m422.842529,160.434418l15.90863,-10.219589l0,5.110535l23.055389,0l0,-5.110535l15.908264,10.219589l-15.908264,10.219666l0,-5.109741l-23.055389,0l0,5.109741l-15.90863,-10.219666z" stroke-linecap="null" stroke-linejoin="null" stroke-dasharray="null" stroke-width="5" stroke="#000000" fill="#000000"/>
  <path style="vector-effect: non-scaling-stroke;" id="svg_33" d="m443.628845,211.127731l9.582703,-2.624893l0,1.3125l13.888245,0l0,-1.3125l9.583527,2.624893l-9.583527,2.625107l0,-1.3125l-13.888245,0l0,1.3125l-9.582703,-2.625107z" stroke-linecap="null" stroke-linejoin="null" stroke-dasharray="null" stroke-width="5" stroke="#000000" fill="#000000"/>
  <path style="vector-effect: non-scaling-stroke;" id="svg_34" d="m439.893677,250.665802l11.223755,-1.875l0,0.937576l16.265961,0l0,-0.937576l11.223755,1.875l-11.223755,1.875092l0,-0.937424l-16.265961,0l0,0.937424l-11.223755,-1.875092z" stroke-linecap="null" stroke-linejoin="null" stroke-dasharray="null" stroke-width="5" stroke="#000000" fill="#000000"/>
  <path transform="rotate(45, 450.518, 293.785)" id="svg_35" d="m487.883911,293.784882l-21.66568,-11.574799l0,5.786591l-31.399658,0l0,-5.786591l-21.665741,11.574799l21.665741,11.574615l0,-5.788025l31.399658,0l0,5.788025l21.66568,-11.574615z" stroke-linecap="null" stroke-linejoin="null" stroke-dasharray="null" stroke-width="5" stroke="#000000" fill="#000000"/>
  <path transform="rotate(90, 388.764, 309.539)" id="svg_36" d="m370.764496,309.538269l10.435486,-6.95813l0,3.47876l15.124786,0l0,-3.47876l10.437958,6.95813l-10.437958,6.958344l0,-3.479218l-15.124786,0l0,3.479218l-10.435486,-6.958344z" stroke-linecap="null" stroke-linejoin="null" stroke-dasharray="null" stroke-width="5" stroke="#000000" fill="#000000"/>
  <path transform="rotate(90, 279.809, 303.826)" id="svg_37" d="m259.930054,303.827606l11.523926,-6.087433l0,3.043701l16.700226,0l0,-3.043701l11.525757,6.087433l-11.525757,6.088257l0,-3.043671l-16.700226,0l0,3.043671l-11.523926,-6.088257z" stroke-linecap="null" stroke-linejoin="null" stroke-dasharray="null" stroke-width="5" stroke="#000000" fill="#000000"/>
  <path transform="rotate(-20, 203.581, 272.962)" id="svg_38" d="m177.879013,272.960846l14.903122,-4.498474l0,2.248657l21.598312,0l0,-2.248657l14.902405,4.498474l-14.902405,4.498535l0,-2.249878l-21.598312,0l0,2.249878l-14.903122,-4.498535z" stroke-linecap="null" stroke-linejoin="null" stroke-dasharray="null" stroke-width="5" stroke="#000000" fill="#000000"/>
 </g>
</svg>
